<svg id="visual" viewBox="0 0 900 100" width="900" height="100" xmlns="http://www.w3.org/2000/svg" xmlns:xlink="http://www.w3.org/1999/xlink" version="1.1"><path d="M0 47L16.7 49C33.3 51 66.7 55 100 58.7C133.3 62.3 166.7 65.7 200 63.7C233.3 61.7 266.7 54.3 300 50.8C333.3 47.3 366.7 47.7 400 52.5C433.3 57.3 466.7 66.7 500 68.2C533.3 69.7 566.7 63.3 600 58.5C633.3 53.7 666.7 50.3 700 51.7C733.3 53 766.7 59 800 61C833.3 63 866.7 61 883.3 60L900 59L900 0L883.3 0C866.7 0 833.3 0 800 0C766.7 0 733.3 0 700 0C666.7 0 633.3 0 600 0C566.7 0 533.3 0 500 0C466.7 0 433.3 0 400 0C366.7 0 333.3 0 300 0C266.7 0 233.3 0 200 0C166.7 0 133.3 0 100 0C66.7 0 33.3 0 16.7 0L0 0Z" fill="#ffffff"></path><path d="M0 45L16.7 44C33.3 43 66.7 41 100 43C133.3 45 166.7 51 200 49.3C233.3 47.7 266.7 38.3 300 35.7C333.3 33 366.7 37 400 40.7C433.3 44.3 466.7 47.7 500 47.7C533.3 47.7 566.7 44.3 600 41.3C633.3 38.3 666.7 35.7 700 35.7C733.3 35.7 766.7 38.3 800 42.2C833.3 46 866.7 51 883.3 53.5L900 56L900 0L883.3 0C866.7 0 833.3 0 800 0C766.7 0 733.3 0 700 0C666.7 0 633.3 0 600 0C566.7 0 533.3 0 500 0C466.7 0 433.3 0 400 0C366.7 0 333.3 0 300 0C266.7 0 233.3 0 200 0C166.7 0 133.3 0 100 0C66.7 0 33.3 0 16.7 0L0 0Z" fill="#f7f7f7"></path><path d="M0 29L16.7 29.3C33.3 29.7 66.7 30.3 100 28.3C133.3 26.3 166.7 21.7 200 19.2C233.3 16.7 266.7 16.3 300 19C333.3 21.7 366.7 27.3 400 29.7C433.3 32 466.7 31 500 29.7C533.3 28.3 566.7 26.7 600 24.5C633.3 22.3 666.7 19.7 700 20.3C733.3 21 766.7 25 800 26C833.3 27 866.7 25 883.3 24L900 23L900 0L883.3 0C866.7 0 833.3 0 800 0C766.7 0 733.3 0 700 0C666.7 0 633.3 0 600 0C566.7 0 533.3 0 500 0C466.7 0 433.3 0 400 0C366.7 0 333.3 0 300 0C266.7 0 233.3 0 200 0C166.7 0 133.3 0 100 0C66.7 0 33.3 0 16.7 0L0 0Z" fill="#efefef"></path></svg>